<?xml version="1.0" encoding="UTF-8" standalone="no"?>
<!DOCTYPE svg PUBLIC "-//W3C//DTD SVG 1.1//EN" "http://www.w3.org/Graphics/SVG/1.1/DTD/svg11.dtd">
<svg xmlns="http://www.w3.org/2000/svg" version="1.1" viewBox="0.00 0.00 254.00 247.00">
<g stroke-width="2.00" fill="none" stroke-linecap="butt">
<path stroke="#898b8c" stroke-opacity="0.969" vector-effect="non-scaling-stroke" d="
  M 247.71 135.73
  L 246.30 146.56"
/>
<path stroke="#898b8c" stroke-opacity="0.969" vector-effect="non-scaling-stroke" d="
  M 62.03 60.43
  Q 60.11 64.78 59.75 71.00
  Q 59.08 82.55 61.96 90.86"
/>
<path stroke="#898b8c" stroke-opacity="0.969" vector-effect="non-scaling-stroke" d="
  M 57.46 95.94
  Q 55.08 98.82 54.02 102.28"
/>
<path stroke="#898b8c" stroke-opacity="0.969" vector-effect="non-scaling-stroke" d="
  M 54.02 102.28
  Q 51.44 107.23 51.07 113.10"
/>
<path stroke="#898b8c" stroke-opacity="0.969" vector-effect="non-scaling-stroke" d="
  M 50.98 126.50
  C 51.69 138.01 56.42 154.14 66.52 161.31"
/>
<path stroke="#898b8c" stroke-opacity="0.969" vector-effect="non-scaling-stroke" d="
  M 104.70 172.65
  Q 101.17 177.12 100.54 178.55
  Q 98.05 184.17 96.53 189.97"
/>
<path stroke="#898b8c" stroke-opacity="0.969" vector-effect="non-scaling-stroke" d="
  M 86.27 192.65
  L 84.31 193.30"
/>
<path stroke="#898b8c" stroke-opacity="0.969" vector-effect="non-scaling-stroke" d="
  M 49.27 180.12
  L 55.05 190.04"
/>
<path stroke="#898b8c" stroke-opacity="0.969" vector-effect="non-scaling-stroke" d="
  M 96.86 206.59
  Q 96.52 222.08 96.94 237.19
  Q 97.03 240.63 92.72 242.46"
/>
<path stroke="#898b8c" stroke-opacity="0.969" vector-effect="non-scaling-stroke" d="
  M 86.21 194.47
  L 82.67 194.47"
/>
<path stroke="#898b8c" stroke-opacity="0.969" vector-effect="non-scaling-stroke" d="
  M 95.42 193.39
  Q 96.40 196.85 93.73 197.41"
/>
</g>
<g>
<path fill="#ffffff" d="
  M 247.71 135.73
  L 246.30 146.56
  C 238.96 190.49 208.86 228.48 165.97 242.20
  C 159.60 244.24 156.95 239.27 157.02 233.75
  Q 157.30 213.68 156.75 193.62
  C 156.51 184.91 155.27 179.62 149.76 173.60
  A 1.21 1.20 67.7 0 1 150.60 171.58
  Q 166.63 171.01 181.91 164.61
  C 201.47 156.42 206.25 130.48 204.05 111.92
  C 203.05 103.41 198.16 96.30 192.25 90.43
  A 0.82 0.82 0.0 0 1 192.06 89.57
  C 196.29 78.37 195.40 69.32 191.47 57.99
  Q 191.31 57.52 190.82 57.51
  C 187.70 57.46 184.76 57.25 181.76 58.06
  Q 169.67 61.29 159.75 68.96
  C 158.15 70.20 156.84 70.27 154.99 69.79
  C 142.08 66.44 129.61 66.04 116.30 66.82
  C 110.13 67.18 104.18 68.67 98.10 70.08
  C 96.93 70.35 95.70 70.05 94.82 69.42
  C 90.97 66.67 63.82 50.26 62.03 60.43
  Q 60.11 64.78 59.75 71.00
  Q 59.08 82.55 61.96 90.86
  L 57.46 95.94
  Q 55.08 98.82 54.02 102.28
  Q 51.44 107.23 51.07 113.10
  L 50.98 126.50
  C 51.69 138.01 56.42 154.14 66.52 161.31
  Q 82.82 171.02 102.57 171.70
  A 1.67 1.62 -29.5 0 1 103.30 171.89
  L 104.70 172.65
  Q 101.17 177.12 100.54 178.55
  Q 98.05 184.17 96.53 189.97
  Q 90.95 192.21 86.27 192.65
  L 84.31 193.30
  C 74.40 190.84 67.89 189.50 62.09 180.52
  C 56.89 172.48 49.26 164.45 38.50 167.46
  A 0.71 0.71 0.0 0 0 38.04 168.44
  Q 39.67 172.04 43.20 173.81
  Q 44.98 174.70 49.27 180.12
  L 55.05 190.04
  Q 58.68 201.49 69.43 204.79
  C 72.28 205.67 74.98 206.73 77.61 206.96
  C 84.20 207.54 90.50 206.10 96.86 206.59
  Q 96.52 222.08 96.94 237.19
  Q 97.03 240.63 92.72 242.46
  Q 90.75 242.94 88.71 242.27
  C 31.38 223.50 -0.89 166.38 6.55 107.34
  C 12.70 58.64 50.21 18.79 97.71 8.47
  Q 118.57 3.94 142.49 6.82
  C 194.03 13.02 238.84 53.20 246.60 105.48
  Q 248.84 120.61 247.71 135.73
  Z"
/>
<path fill="#0c1011" fill-opacity="0.937" d="
  M 62.03 60.43
  Q 58.40 75.93 61.96 90.86
  Q 59.08 82.55 59.75 71.00
  Q 60.11 64.78 62.03 60.43
  Z"
/>
<path fill="#0c1011" fill-opacity="0.937" d="
  M 57.46 95.94
  L 54.02 102.28
  Q 55.08 98.82 57.46 95.94
  Z"
/>
<path fill="#0c1011" fill-opacity="0.937" d="
  M 54.02 102.28
  L 51.07 113.10
  Q 51.44 107.23 54.02 102.28
  Z"
/>
<path fill="#0c1011" fill-opacity="0.937" d="
  M 50.98 126.50
  C 52.27 131.53 52.75 136.95 54.39 141.47
  C 57.08 148.86 60.40 155.89 66.52 161.31
  C 56.42 154.14 51.69 138.01 50.98 126.50
  Z"
/>
<path fill="#0c1011" fill-opacity="0.937" d="
  M 247.71 135.73
  Q 248.03 141.16 246.30 146.56
  L 247.71 135.73
  Z"
/>
<circle fill="#ffffff" cx="49.85" cy="171.54" r="1.59"/>
<path fill="#0c1011" fill-opacity="0.937" d="
  M 104.70 172.65
  Q 102.14 177.20 99.85 181.67
  C 98.79 183.73 98.23 186.96 97.36 189.43
  Q 97.14 190.07 96.53 189.97
  Q 98.05 184.17 100.54 178.55
  Q 101.17 177.12 104.70 172.65
  Z"
/>
<path fill="#ffffff" d="
  M 53.01 176.06
  L 52.54 175.85
  Q 52.06 175.64 52.44 175.27
  Q 54.21 173.53 56.24 175.02
  A 1.57 1.57 0.0 0 1 55.32 177.85
  Q 53.74 177.86 53.43 176.56
  A 0.74 0.71 6.2 0 0 53.01 176.06
  Z"
/>
<path fill="#0c1011" fill-opacity="0.937" d="
  M 55.05 190.04
  L 49.27 180.12
  Q 53.33 184.11 55.05 190.04
  Z"
/>
<ellipse fill="#ffffff" cx="0.00" cy="0.00" transform="translate(59.71,182.86) rotate(54.3)" rx="2.67" ry="1.93"/>
<ellipse fill="#ffffff" cx="0.00" cy="0.00" transform="translate(65.76,189.71) rotate(44.2)" rx="2.88" ry="2.25"/>
<ellipse fill="#ffffff" cx="0.00" cy="0.00" transform="translate(74.09,194.85) rotate(10.4)" rx="2.87" ry="2.14"/>
<path fill="#0c1011" fill-opacity="0.937" d="
  M 86.27 192.65
  Q 85.73 193.73 86.21 194.47
  L 82.67 194.47
  Q 86.06 193.30 84.31 193.30
  L 86.27 192.65
  Z"
/>
<path fill="#ffffff" d="
  M 95.42 193.39
  Q 96.40 196.85 93.73 197.41
  Q 91.57 197.56 90.92 195.97
  A 2.13 2.12 -18.1 0 1 92.38 193.10
  Q 94.25 192.64 95.42 193.39
  Z"
/>
<path fill="#0c1011" fill-opacity="0.937" d="
  M 95.42 193.39
  C 97.49 194.84 95.89 197.59 93.73 197.41
  Q 96.40 196.85 95.42 193.39
  Z"
/>
<path fill="#ffffff" d="
  M 86.21 194.47
  Q 87.13 195.80 86.59 197.40
  Q 86.38 198.05 85.69 198.08
  L 82.71 198.18
  Q 82.05 198.20 81.78 197.60
  Q 80.77 195.34 82.67 194.47
  L 86.21 194.47
  Z"
/>
<path fill="#0c1011" fill-opacity="0.937" d="
  M 96.86 206.59
  Q 97.89 217.87 97.54 229.08
  C 97.40 233.74 99.36 241.29 92.72 242.46
  Q 97.03 240.63 96.94 237.19
  Q 96.52 222.08 96.86 206.59
  Z"
/>
</g>
</svg>
