<?xml version="1.0" encoding="UTF-8" standalone="no"?>
<!DOCTYPE svg PUBLIC "-//W3C//DTD SVG 1.1//EN" "http://www.w3.org/Graphics/SVG/1.1/DTD/svg11.dtd">
<svg xmlns="http://www.w3.org/2000/svg" version="1.1" viewBox="0.00 0.00 32.00 32.00">
<path fill="#ffffff" d="
  M 14.83 0.00
  L 22.30 0.00
  C 27.17 0.95 31.64 -0.37 32.00 6.59
  L 32.00 25.55
  Q 31.71 30.85 26.69 32.00
  L 5.19 32.00
  Q 0.30 30.78 0.00 25.42
  L 0.00 6.19
  C 0.80 -1.81 9.54 0.44 14.83 0.00
  Z
  M 23.83 10.19
  Q 25.83 12.17 29.06 10.98
  Q 29.47 10.83 29.48 10.40
  C 29.58 7.72 30.17 2.65 26.00 2.52
  Q 22.03 2.40 8.03 2.53
  C 1.84 2.59 2.46 5.63 2.51 10.47
  Q 2.51 10.96 2.98 11.08
  C 8.39 12.54 7.95 9.08 11.49 7.42
  C 16.52 5.05 20.14 6.55 23.83 10.19
  Z
  M 23.29 16.06
  A 7.28 7.28 0.0 0 0 16.01 8.78
  A 7.28 7.28 0.0 0 0 8.73 16.06
  A 7.28 7.28 0.0 0 0 16.01 23.34
  A 7.28 7.28 0.0 0 0 23.29 16.06
  Z"
/>
<g>
<rect fill="#ffffff" x="-2.49" y="-2.49" transform="translate(25.78,6.26) rotate(1.8)" width="4.98" height="4.98" rx="1.63"/>
<path fill="#ffffff" d="
  M 11.92 14.87
  C 14.34 19.43 19.07 14.15 14.93 11.98
  Q 14.32 11.66 15.00 11.55
  C 23.40 10.22 21.40 23.79 13.80 20.07
  Q 11.21 18.80 11.34 15.01
  A 0.31 0.31 0.0 0 1 11.92 14.87
  Z"
/>
</g>
</svg>
