<?xml version="1.0" encoding="UTF-8" standalone="no"?>
<!DOCTYPE svg PUBLIC "-//W3C//DTD SVG 1.1//EN" "http://www.w3.org/Graphics/SVG/1.1/DTD/svg11.dtd">
<svg xmlns="http://www.w3.org/2000/svg" version="1.1" viewBox="0.00 0.00 199.00 219.00">
<path stroke="#9d9699" stroke-opacity="0.984" stroke-width="2.00" fill="none" stroke-linecap="butt" vector-effect="non-scaling-stroke" d="
  M 47.37 89.75
  L 47.38 195.00"
/>
<g>
<circle fill="#ffffff" cx="27.16" cy="31.59" r="23.07"/>
<path fill="#ffffff" d="
  M 109.64 86.03
  A 0.28 0.28 0.0 0 0 110.16 86.19
  Q 121.94 68.99 143.17 67.67
  Q 159.24 66.68 172.17 73.06
  C 190.00 81.85 193.42 108.73 193.48 126.00
  Q 193.59 160.15 193.47 195.92
  Q 193.46 197.45 191.94 197.45
  L 155.03 197.50
  Q 153.25 197.51 153.25 195.72
  Q 153.25 163.31 153.26 130.00
  C 153.26 116.75 150.46 103.22 133.75 103.07
  C 118.71 102.93 111.48 112.25 111.38 126.50
  Q 111.14 159.31 111.24 194.88
  Q 111.24 197.45 108.67 197.46
  L 72.25 197.50
  Q 70.50 197.50 70.50 195.75
  L 70.50 72.78
  A 1.79 1.79 0.0 0 1 72.29 70.99
  L 107.87 71.02
  Q 109.72 71.02 109.71 72.87
  L 109.64 86.03
  Z"
/>
<path fill="#ffffff" d="
  M 47.37 89.75
  L 47.38 195.00
  Q 47.38 196.09 46.93 196.88
  Q 46.64 197.41 46.05 197.41
  L 8.46 197.43
  Q 6.75 197.43 6.75 195.71
  L 6.75 73.00
  Q 6.75 71.00 8.75 71.00
  L 45.70 71.00
  A 1.70 1.70 0.0 0 1 47.40 72.70
  L 47.37 89.75
  Z"
/>
<path fill="#382a30" fill-opacity="0.965" d="
  M 47.37 89.75
  L 47.38 195.00
  L 47.37 89.75
  Z"
/>
</g>
</svg>
